<?xml version="1.0" encoding="iso-8859-1"?>
<!-- Uploaded to: SVG Repo, www.svgrepo.com, Generator: SVG Repo Mixer Tools -->
<!DOCTYPE svg PUBLIC "-//W3C//DTD SVG 1.1//EN" "http://www.w3.org/Graphics/SVG/1.1/DTD/svg11.dtd">
<svg fill="currentColor" height="800px" width="800px" version="1.1" id="Capa_1" xmlns="http://www.w3.org/2000/svg" xmlns:xlink="http://www.w3.org/1999/xlink"
	 viewBox="0 0 495.65 495.65" xml:space="preserve">
<path fill="currentColor" d="M495.65,223.054V68.255c0-8.58-6.938-15.516-15.521-15.516H15.514C6.932,52.739,0,59.675,0,68.255v359.143
	c0,8.578,6.932,15.514,15.514,15.514h464.615c8.584,0,15.521-6.936,15.521-15.514V272.601H304.949v24.74
	c0,8.578-6.938,15.514-15.516,15.514h-96.965c-8.578,0-15.516-6.936-15.516-15.514v-96.963c0-8.58,6.938-15.516,15.516-15.516
	h96.965c8.578,0,15.516,6.936,15.516,15.516v22.676H495.65z"/>
</svg>