<svg xmlns="http://www.w3.org/2000/svg" viewBox="4 -4 96 96" fill="none" role="img" aria-label="Sketch Editor"><title>Sketch Editor</title><g><circle cx="48" cy="53" r="38" fill="#5B57E0"></circle><g><path d="M64 35 C68.0697520390153 19.40067530721426, 39.99775453954935 19.4093785867095, 32.400503505766395 30.304726849496365 M64.11375905424356 35.06330739110708 C67.84664063565432 21.910123670175672, 41.73968304984272 16.20049895770848, 33.89773754946887 28.569250412061812 M34 30 C25.52186848074198 41.513433896005154, 61.96759406477213 47.533100615441796, 60.13494569212198 59.763504420220855 M33.899807991087435 28.83153778165579 C26.25796889178455 40.85637533195317, 60.773648711368445 47.716946466043595, 61.41429705254733 61.41302351243794 M61 60 C61.41157189756632 77.3870674237609, 35.53161236196756 78.66032453626394, 27.48944555670023 66.42646747678518 M61.32568999677896 59.78183451741934 C60.43737568490207 75.96168590791524, 35.580460976287725 79.35178638465703, 27.15408890120685 66.74535015590489" stroke="#fff" stroke-width="6.15" fill="none" stroke-linecap="round" stroke-linejoin="round"></path></g><g transform="rotate(-45 64 35)"><g><path d="M64.8884617684409 34.3380244107917 L78.37633332591504 30.58597524482757 L79.01104307156056 41.060107299871746" stroke="none" stroke-width="0" fill="#F3F0E8" fill-rule="evenodd" stroke-linecap="round" stroke-linejoin="round"></path><path d="M64.47907980943575 35.241180227738326 C67.7357660711884 33.19911181317257, 70.15048720033009 33.621480851061214, 78.80895539969714 29.920211363425917 M63.96942196783043 35.43524867508054 C68.30058735502213 33.26689309104819, 73.55652070015101 31.439737555352565, 79.43908064070892 29.69559038193223 M79.38710046568886 29.926579266693444 C78.2858796665445 32.19855213696137, 78.67054653558881 34.67962525365874, 78.55511169293895 39.39652985623106 M78.69729108656756 29.73803970296867 C78.72431197519042 32.88706468925811, 78.95906892324425 35.10069009554572, 79.31088962848298 39.65325650204905 M78.30765097796127 40.46803642416114 C74.94342056834171 37.50267993801136, 69.8673201927358 36.71910308390155, 63.10815307418765 34.64019858027302 M78.4558508393753 39.886568375987814 C74.53248448281089 38.96095801769755, 70.60037434133258 36.806977412213875, 64.36824801742462 35.53732129718227" stroke="#F3F0E8" stroke-width="2.1" fill="none" stroke-linecap="round" stroke-linejoin="round"></path></g><g><path d="M64.9002685648203 34.78389244019985 C67.03586507439613 35.658828107297424, 70.40936258494854 35.54355285781622, 77.3100265032053 34.36933622300625 M65.10658860176801 35.01839594393969 C69.27864447027446 34.84507538628578, 72.81535823673009 35.199161222696304, 76.7166984936595 34.71298743754625" stroke="#23222A" stroke-width="1.5" fill="none" stroke-linecap="round" stroke-linejoin="round"></path></g><g><path d="M76.45040533490163 34.36579474264072 C76.54712742387572 34.27932955521588, 76.60197998346489 34.172858066643606, 76.92942482618167 34.13195563945636 C77.25686966889846 34.09105321226911, 78.26522356790466 33.85701600305116, 78.41507439120234 34.12038017951724 C78.56492521450002 34.383744355983325, 78.02413177611083 35.39476026758214, 77.82852976596773 35.71214069825286 C77.63292775582462 36.02952112892358, 77.45960982885896 35.917254050781835, 77.2414623303437 36.02466276354153 C77.02331483182843 36.13207147630122, 76.71790814543158 36.42745241041051, 76.51964477487613 36.356592974811015 C76.32138140432068 36.28573353921152, 76.06979887098116 35.83401153850527, 76.05188210701095 35.59950614994455 C76.03396534304075 35.36500076138383, 76.3817859153967 35.099640681660816, 76.41214419105489 34.949560643446695 C76.44250246671308 34.799480605232574, 76.16761690312839 34.8682044906295, 76.23403176096004 34.699025920659814 C76.30044661879168 34.529847350690126, 76.70515823755174 33.98348728912683, 76.81063333804472 33.93448922362855 C76.9161084385377 33.88549115813028, 76.93669142860897 34.389276371378244, 76.8668823639179 34.405037527670146 M78.14337101870296 34.62854927972748 C78.29690132470598 34.47638507625334, 77.73340553929178 34.02399747576311, 77.68685488771013 33.97782463885274 C77.64030423612847 33.931651801942365, 77.77867070582523 34.04812861996203, 77.86406710921307 34.35151225826523 C77.9494635126009 34.65489589656843, 78.36422193028993 35.53796205913906, 78.19923330803712 35.79812646867195 C78.03424468578432 36.05829087820484, 77.11347784962678 36.021318837513725, 76.87413537569623 35.912498715462576 C76.63479290176568 35.803678593411426, 76.89533333258214 35.17567818296772, 76.76317846445387 35.14520573636504 C76.6310235963256 35.11473328976236, 76.1889467322906 35.888972479799506, 76.0812061669266 35.729664035846504 C75.97346560156261 35.5703555918935, 75.90858571246946 34.40367678722848, 76.11673507226986 34.18935507264703 C76.32488443207026 33.97503335806559, 77.2719504540014 34.645496261397945, 77.33010232572903 34.443733748357815 C77.38825419745666 34.241971235317685, 76.58725552081532 33.16128159884584, 76.46564630263565 32.978779994406246 C76.34403708445598 32.79627838996665, 76.36815473675239 33.13084955888662, 76.60044701665103 33.34872412172025" stroke="#23222A" stroke-width="1.5" fill="none" stroke-linecap="round" stroke-linejoin="round"></path></g><g><path d="M78.70392658002675 28.839944471046326 L82.55956187732518 29.41138036362827 L83.5415327001363 40.12496827952563 L77.94382098205388 40.18262472264468" stroke="none" stroke-width="0" fill="#F4A300" stroke-linecap="round" stroke-linejoin="round"></path><path d="M79.20124931834638 29.585845898166298 C79.56868107922375 29.41049259946346, 80.67978006117046 29.675529189562795, 82.89835935853422 29.264595805183053 M79.13982476521284 29.481241588704286 C80.45288833204657 29.27932033391744, 81.9553444846347 29.257512049396336, 83.00732239175588 29.499172448031604 M82.88871671262383 29.612435065120458 C82.7591384051156 33.11323945227265, 82.43521150520563 36.23976536652445, 83.35300925508142 41.253752034991976 M82.6190350035876 29.34265817721188 C83.36611516202508 32.07211156965792, 83.26471594871103 34.86908725519478, 82.65068355505169 40.23388589985668 M82.98702468894422 40.34876002646982 C81.3161846820265 40.56252164350151, 80.31986638836563 40.53160593257546, 79.26569036267698 40.6194967804104 M82.88610078383238 40.650936372391875 C82.1995071700588 40.667226198936994, 81.24551170844585 40.654855246569205, 79.06751907993107 40.61350735317915 M79.26471569219231 41.0591778152883 C78.70223291892052 38.44516602113843, 78.62380546969413 35.31820192596316, 79.70294408670068 29.694009128421545 M78.65849417774379 40.940453870609396 C78.82428198374569 37.26906645621359, 78.60790892399609 33.6036163739711, 78.84900243990123 29.444776472404598" stroke="#F4A300" stroke-width="2.1" fill="none" stroke-linecap="round" stroke-linejoin="round"></path></g><g><path d="M82.98370937164873 30.4350788557902 L103.89144784864038 29.879101719893516 L104.31912097986788 39.68881920222193 L83.99171045478434 39.255362894572315" stroke="none" stroke-width="0" fill="#23222A" stroke-linecap="round" stroke-linejoin="round"></path><path d="M83.20633100513369 30.203948808275165 C87.42034196928144 29.515818417439608, 93.20834222938865 28.815666002402455, 105.33628053311259 30.99761387761682 M82.54505793182179 29.891426969785243 C88.10188005464151 29.295894587476553, 92.19684028094635 30.188082334835826, 105.33034995822236 30.32283335151151 M104.73848640741781 30.277372464817017 C104.42863345057516 33.22100577848032, 104.38145056576282 36.582702732738106, 105.10187854887917 39.57943294672295 M105.114039880177 30.01905602426268 C105.04241405829974 33.118730305554344, 105.31011505976505 36.61058812909759, 105.18051721318625 40.14639771343209 M104.27208457235247 39.99439202602953 C97.63790225200354 41.077975532280654, 89.69217455964535 40.5429296998851, 84.21397143248468 41.21501746829599 M104.47010532347485 39.45406945468858 C95.9308853761293 39.88648667977452, 87.47442633500323 39.63460685358643, 83.29486020235345 39.39682780327276 M83.68414185466244 39.61146641103551 C82.48308432576061 37.3730146185495, 83.20670813497901 34.31092114439234, 83.1347587657161 30.54037988213822 M83.12136900736951 40.3033547332976 C82.93236714262702 37.50941100646742, 82.91629596162774 34.51273199864663, 82.66943994923494 30.035789520153777" stroke="#23222A" stroke-width="2.1" fill="none" stroke-linecap="round" stroke-linejoin="round"></path></g><g><path d="M88.26349216327071 26.23021324053407 L102.02333381995558 27.346823076158763 L101.89670925959945 30.452670124918225 L88.23959992751479 29.52810106649995" stroke="none" stroke-width="0" fill="#23222A" stroke-linecap="round" stroke-linejoin="round"></path><path d="M87.61417002204806 27.261134281717244 C91.37735441308469 26.857833406317233, 92.94980642039329 26.906266348946094, 101.76749677781015 27.516961674056947 M87.86414482442662 27.19481989743188 C91.07693808129058 27.989628682129833, 93.59378496898339 27.400349678390477, 101.40565717248246 27.69737290086225 M100.87289986785501 27.709521229304375 C101.15849656897485 28.53798575665802, 100.79695297199189 29.717541630752386, 100.96657107885927 30.59254761580378 M100.9604681235738 27.626793031375858 C100.94418187372311 28.755494012888523, 100.92196297816857 29.89141879124567, 100.99187723280862 30.575904904883355 M100.0958797049895 31.40923954781145 C96.05780562784523 30.301757377633454, 89.94252699900419 29.706673856028917, 88.7146691835299 30.296158172450962 M100.6813093730621 30.634747080821544 C96.34470636492594 30.156892853208632, 91.16474854035303 30.779654674359413, 88.16388125328348 30.68197724642232 M87.91957912381739 30.663885788954797 C88.18960963503122 29.600996444039048, 87.80479127303362 28.181320027895275, 87.89256666477769 27.425475484170022 M87.95429617824033 30.690819838922472 C88.00648761135862 29.787860945966095, 88.05480197233483 29.181670527588576, 88.05210974456742 27.60948001412675" stroke="#23222A" stroke-width="2.1" fill="none" stroke-linecap="round" stroke-linejoin="round"></path></g></g></g></svg>