<?xml version="1.0" encoding="iso-8859-1"?>
<svg fill="#000000" height="800px" width="800px" version="1.1" id="Layer_1" xmlns="http://www.w3.org/2000/svg" xmlns:xlink="http://www.w3.org/1999/xlink" viewBox="0 0 512 512" xml:space="preserve">
<g transform="rotate(90, 256, 256)">
<path d="M469.333,302.592v-93.205C494.101,200.555,512,177.088,512,149.333c0-35.307-28.715-64-64-64
  c-18.261,0-34.645,7.765-46.315,20.053L125.141,46.123C117.355,19.563,93.056,0,64,0C28.693,0,0,28.693,0,64
  c0,27.755,17.877,51.221,42.667,60.053v263.872C17.877,396.757,0,420.224,0,448c0,35.285,28.693,64,64,64
  c29.056,0,53.355-19.584,61.141-46.144l276.544-59.264c11.669,12.288,28.053,20.075,46.315,20.075
  c35.285,0,64-28.715,64-64C512,334.891,494.101,311.424,469.333,302.592z
  M426.667,302.592C401.877,311.424,384,334.891,384,362.667c0,1.365,0.32,2.645,0.405,3.989
  L122.752,422.72c-7.019-16.256-20.651-28.821-37.419-34.795V124.053
  c16.768-5.973,30.4-18.539,37.419-34.795l261.653,56.064c-0.085,1.344-0.405,2.624-0.405,4.011
  c0,27.755,17.877,51.221,42.667,60.053V302.592z"/>
</g>
</svg>
