<svg width="640" height="480" xmlns="http://www.w3.org/2000/svg" xmlns:svg="http://www.w3.org/2000/svg" xmlns:se="http://svg-edit.googlecode.com">
 <!-- Created with SVG-edit - https://github.com/SVG-Edit/svgedit-->
 <g class="layer" id="svg_1">
  <title>Layer 1</title>
  <path d="m40,60l20,-20l120,0l20,20l0,60l-20,20l-120,0l-20,-20l0,-60z" fill="#FFFFFF" id="svg_3" opacity="0.5" paint-order="stroke" se:corner-radius="20:c,20:c,20:c,20:c" se:orig-d="M40,40 L200,40 L200,140 L40,140 Z" stroke="#000000" stroke-width="5"/>
  <path d="m316.16,53.2a13.75,13.75 0 0 0 7.68,0l11.32,38.91a3,3 0 0 1 3.84,2.88l43.12,0a12.88,12.88 0 0 0 2.27,7.3l-34.95,24.03a2.96,2.96 0 0 1 -1.55,4.5l13.43,42.51a12.23,12.23 0 0 0 -6.18,4.43l-32.77,-24.03a2.93,2.93 0 0 1 -4.73,0l-32.77,24.03a12.23,12.23 0 0 0 -6.18,-4.43l13.43,-42.51a2.96,2.96 0 0 1 -1.55,-4.5l-34.95,-24.03a12.88,12.88 0 0 0 2.27,-7.3l43.12,0a3,3 0 0 1 3.84,-2.88l11.31,-38.91z" fill="#cc6633" id="svg_5" opacity="0.5" paint-order="stroke" se:corner-radius="4:i,4:i,4:i,4:i,4:i,4:i,4:i,4:i,4:i,4:i" se:orig-d="M320,40 L336,95 L395,95 L347,128 L365,185 L320,152 L275,185 L293,128 L245,95 L304,95 Z" stroke="#000000" stroke-width="5"/>
  <path d="m440,56a16,16 0 0 1 16,-16l104,0c40,0 40,100 0,100l-104,0a16,16 0 0 1 -16,-16l0,-68z" fill="#3366cc" id="svg_6" opacity="0.5" paint-order="stroke" se:corner-radius="16" se:orig-d="M440,40 L560,40 C600,40 600,140 560,140 L440,140 Z" stroke="#000000" stroke-width="5"/>
 </g>
</svg>